<svg width="201" height="270" viewBox="0 0 201 270" fill="none" xmlns="http://www.w3.org/2000/svg">
<g clip-path="url(#clip0)">
<path d="M46.1187 6.5458L49.6793 13.3273C50.0423 14.0187 49.7768 14.8711 49.0854 15.2342L32.7569 23.8072C32.0655 24.1702 31.213 23.9047 30.85 23.2133L27.2895 16.4319C25.8452 13.681 26.9072 10.2711 29.6615 8.81557L38.5024 4.17375C41.2568 2.71825 44.6667 3.78025 46.1187 6.5458ZM33.9085 29.0386L54.1904 67.6681L67.0784 74.2906C68.8166 75.1888 70.909 74.0808 71.1678 72.1434L73.0231 57.7708L52.7413 19.1414C52.3783 18.45 51.5258 18.1845 50.8344 18.5475L34.5059 27.1206C33.811 27.4948 33.5455 28.3473 33.9085 29.0386ZM55.2474 55.3847C54.4383 55.8095 53.4512 55.502 53.0264 54.693L41.1322 32.039C40.7074 31.23 41.0149 30.2429 41.8239 29.8181C42.633 29.3933 43.6201 29.7007 44.0449 30.5098L55.9391 53.1637C56.3638 53.9728 56.0564 54.9599 55.2474 55.3847ZM63.4197 62.372L65.0965 56.9878L69.1683 58.256L68.1825 65.8856L63.6076 68.2876L56.7674 64.7669L58.0355 60.6951L63.4197 62.372Z" fill="#E5E5E5"/>
</g>
<g clip-path="url(#clip1)">
<path d="M178.376 109.013C176.352 100.651 165.894 96.0128 155.011 98.6471C144.127 101.281 136.948 110.188 138.972 118.55C139.757 121.794 141.816 124.46 144.677 126.381C144.099 129.545 142.556 132.322 142.534 132.357C142.378 132.625 142.399 132.96 142.591 133.214C142.783 133.468 143.089 133.574 143.393 133.501C146.859 132.662 149.448 130.804 151.222 129.103C154.631 129.849 158.453 129.856 162.337 128.916C173.22 126.281 180.4 117.374 178.376 109.013ZM194.969 127.025C196.637 124.018 197.247 120.696 196.462 117.452C194.93 111.124 188.551 106.93 180.824 106.408C181.06 107.011 181.251 107.636 181.407 108.279C183.832 118.296 175.601 128.909 163.07 131.942C162.047 132.19 161.034 132.355 160.023 132.489C164.324 137.206 172.258 139.331 180.423 137.355C184.307 136.415 187.705 134.671 190.393 132.438C192.749 133.14 195.901 133.609 199.367 132.77C199.67 132.696 199.902 132.45 199.949 132.148C200.006 131.844 199.871 131.536 199.608 131.36C199.572 131.338 196.932 129.584 194.969 127.025Z" fill="#E5E5E5"/>
</g>
<g clip-path="url(#clip2)">
<path d="M43.6031 164.071L32.6814 167.602L23.5896 160.623C21.9648 159.382 19.5897 160.524 19.5854 162.594L19.5666 174.055L10.1045 180.553C8.40697 181.717 8.78121 184.327 10.7405 184.963L21.6433 188.507L24.8846 199.497C25.4718 201.483 28.0791 201.904 29.2761 200.252L36.0398 190.981L47.5113 191.279C49.5478 191.333 50.8085 189.017 49.5935 187.34L42.8642 178.066L46.7086 167.265C47.4002 165.325 45.561 163.436 43.6031 164.071ZM38.6959 178.664L45.0913 187.488L34.1827 187.207L27.749 196.021L24.6603 185.57L14.2846 182.198L23.2891 176.02L23.3109 165.111L31.9672 171.751L42.3559 168.386L38.6959 178.664Z" fill="#E5E5E5"/>
</g>
<g clip-path="url(#clip3)">
<path d="M139.915 217.514C146.171 218.794 151.352 222.412 154.734 227.271L158.79 224.582C160.507 223.444 162.743 224.95 162.334 226.969L159.767 239.627C159.513 240.879 158.293 241.688 157.041 241.434L144.383 238.867C142.364 238.458 141.848 235.812 143.565 234.674L148.306 231.531C145.945 228.211 142.481 225.935 138.481 225.088C129.772 223.244 120.986 228.813 119.234 237.843C117.571 246.408 123.049 254.99 131.908 256.786C135.791 257.573 139.743 256.931 143.15 254.98C143.677 254.678 144.349 254.839 144.685 255.346L147.67 259.85C148.037 260.403 147.862 261.149 147.291 261.487C142.378 264.396 136.412 265.564 130.376 264.34C117.443 261.717 109.085 249.107 111.707 236.174C114.326 223.256 127.002 214.871 139.915 217.514Z" fill="#E5E5E5"/>
</g>
<defs>
<clipPath id="clip0">
<rect width="60.1515" height="60.1515" fill="white" transform="translate(12.7871 57.4307) rotate(-72.7012)"/>
</clipPath>
<clipPath id="clip1">
<rect width="56.1353" height="49.828" fill="white" transform="translate(134.576 100.389) rotate(-13.6061)"/>
</clipPath>
<clipPath id="clip2">
<rect width="44.7821" height="39.7362" fill="white" transform="translate(0.886719 170.254) rotate(-26.1986)"/>
</clipPath>
<clipPath id="clip3">
<rect width="49.3293" height="49.3293" fill="white" transform="translate(115.854 211.848) rotate(11.462)"/>
</clipPath>
</defs>
</svg>
