<svg width="197" height="297" viewBox="0 0 197 297" fill="none" xmlns="http://www.w3.org/2000/svg">
<g clip-path="url(#clip0)">
<path d="M149.202 8.81027C130.443 4.68314 111.885 16.5525 107.759 35.3067C103.631 54.0719 115.496 72.6227 134.255 76.7498C153.015 80.877 171.57 69.0186 175.699 50.2534C179.825 31.4992 167.962 12.9374 149.202 8.81027ZM135.702 70.175C120.562 66.8442 111.002 51.8983 114.334 36.7532C117.664 21.6181 132.616 12.0544 147.756 15.3851C162.89 18.7147 172.455 33.6672 169.124 48.807C165.793 63.9468 150.847 73.507 135.702 70.175ZM158.082 38.4508C156.061 47.6352 146.11 45.5942 145.364 48.9883L145.173 49.8563C144.973 50.7641 144.075 51.3381 143.167 51.1384L136.915 49.7629C136.007 49.5632 135.433 48.6653 135.633 47.7576L135.894 46.5715C136.971 41.6753 141.114 40.5347 144.265 39.5791C146.967 38.7598 148.643 38.1669 149.036 36.381C149.555 34.0188 146.887 31.7879 144.451 31.252C141.275 30.5532 139.478 31.7342 136.844 33.8821C136.134 34.4612 135.091 34.3683 134.497 33.6708L131.322 29.9425C130.739 29.2582 130.799 28.2383 131.453 27.6215C135.735 23.5812 140.444 21.8183 146.862 23.2303C153.583 24.709 159.604 31.5341 158.082 38.4508ZM144.107 59.3869C143.409 62.5591 140.26 64.5721 137.088 63.8742C133.916 63.1763 131.903 60.0278 132.601 56.8556C133.299 53.6834 136.447 51.6704 139.619 52.3683C142.792 53.0662 144.805 56.2147 144.107 59.3869Z" fill="#E5E5E5"/>
</g>
<g clip-path="url(#clip1)">
<path d="M179.706 175.918L185.492 166.672L171.895 158.163C170.991 157.597 169.808 157.87 169.243 158.774L149.502 190.318C148.936 191.222 149.208 192.405 150.113 192.971L172.955 207.266C173.859 207.832 175.042 207.56 175.608 206.655L189.562 184.357L180.317 178.571C179.419 178.009 179.144 176.815 179.706 175.918ZM175.911 193.539L165.285 195.943C164.551 196.11 163.821 195.653 163.65 194.921L161.167 184.312C160.905 183.196 162.125 182.323 163.096 182.931L167.527 185.704L170.93 180.265C171.307 179.664 172.098 179.482 172.699 179.858L174.874 181.22C175.475 181.596 175.658 182.387 175.281 182.988L171.878 188.427L176.309 191.2C177.28 191.807 177.028 193.286 175.911 193.539ZM191.426 180.32L188.94 169.492C188.826 168.995 188.517 168.565 188.082 168.293L187.668 168.033L182.222 176.735L190.924 182.181L191.183 181.766C191.451 181.338 191.541 180.817 191.426 180.32Z" fill="#E5E5E5"/>
</g>
<g clip-path="url(#clip2)">
<path d="M34.3028 263.08C31.9396 261.404 31.0382 257.667 30.483 255.945C27.4986 247.633 26.7704 244.903 26.2152 243.182L17.4441 255.55C16.291 257.176 16.6786 259.433 18.3098 260.59L41.9423 277.35C43.5735 278.506 45.8316 278.126 46.9848 276.5L55.7559 264.132C53.9477 264.177 51.1311 264.393 42.2993 264.325C40.4912 264.371 36.6661 264.756 34.3028 263.08ZM58.6492 253.792L35.0167 237.032C33.3855 235.875 31.1275 236.256 29.9743 237.882L28.9301 239.354C30.0403 242.797 29.7449 242.587 33.9262 254.847C34.3947 256.064 34.9141 259.088 36.3912 260.135C37.8682 261.183 40.8937 260.673 41.9887 261.007C54.941 260.899 54.6456 260.689 58.2619 260.598L59.5149 258.831C60.6681 257.205 60.2804 254.949 58.6492 253.792ZM88.5468 261.718L59.0062 240.768C57.375 239.611 55.1169 239.991 53.9638 241.617L51.8754 244.562L60.7376 250.847C63.8033 253.021 64.672 257.153 62.8455 260.339L62.8867 260.338L54.1155 272.705L71.8399 285.275C73.4711 286.432 75.7292 286.052 76.8824 284.426L89.4125 266.757C90.5657 265.131 90.178 262.874 88.5468 261.718ZM77.2393 271.401L71.3312 267.211L75.5079 261.322L81.416 265.512L77.2393 271.401ZM51.0097 239.522C53.3128 236.275 57.8368 235.513 61.0945 237.823L81.773 252.488L88.0381 243.654C89.1912 242.028 88.8036 239.771 87.1724 238.614L57.6317 217.664C56.0005 216.507 53.7425 216.888 52.5893 218.514L40.0591 236.182L48.9213 242.467L51.0097 239.522Z" fill="#E5E5E5"/>
</g>
<g clip-path="url(#clip3)">
<path d="M13.3735 129.771C10.1608 129.978 7.24512 131.202 5.5907 135.561C5.40252 136.058 4.95008 136.36 4.42236 136.36C3.5327 136.36 0.782012 134.144 -0.00195312 133.61C-0.00115234 140.204 3.03621 146 10.2488 146C16.3236 146 20.4989 142.495 20.4989 136.375C20.4989 136.126 20.4468 135.889 20.4212 135.644L13.3735 129.771ZM36.6658 105C35.4518 105 34.3139 105.537 33.4459 106.317C17.0771 120.94 15.3739 121.283 15.3739 125.587C15.3739 126.684 15.6341 127.73 16.0729 128.686L21.1835 132.945C21.7609 133.089 22.3559 133.188 22.9765 133.188C27.9501 133.188 30.8329 129.546 39.8858 112.651C40.4767 111.502 40.9989 110.26 40.9989 108.968C40.9989 106.653 38.9168 105 36.6658 105Z" fill="#E5E5E5"/>
</g>
<defs>
<clipPath id="clip0">
<rect width="71.8083" height="71.8083" fill="white" transform="translate(114.377) rotate(12.4074)"/>
</clipPath>
<clipPath id="clip1">
<rect width="30.7963" height="41.0618" fill="white" transform="translate(170.264 157.142) rotate(32.0383)"/>
</clipPath>
<clipPath id="clip2">
<rect width="65.1875" height="57.7611" fill="white" transform="translate(48.7695 211.379) rotate(35.3439)"/>
</clipPath>
<clipPath id="clip3">
<rect width="41" height="41" fill="white" transform="translate(0 105)"/>
</clipPath>
</defs>
</svg>
