<svg width="113" height="38" viewBox="0 0 113 38" fill="none" xmlns="http://www.w3.org/2000/svg">
<path d="M2.176 30V7.28H7.424V30H2.176ZM17.0178 17.008V30H11.7698V7.28H15.8658L26.4578 20.624V7.28H31.7058V30H27.4818L17.0178 17.008ZM49.683 13.936C49.619 13.8507 49.395 13.6907 49.011 13.456C48.627 13.2213 48.147 12.976 47.571 12.72C46.995 12.464 46.3657 12.24 45.683 12.048C45.0003 11.856 44.3177 11.76 43.635 11.76C41.7577 11.76 40.819 12.3893 40.819 13.648C40.819 14.032 40.915 14.352 41.107 14.608C41.3203 14.864 41.619 15.0987 42.003 15.312C42.4083 15.504 42.9097 15.6853 43.507 15.856C44.1043 16.0267 44.7977 16.2187 45.587 16.432C46.675 16.7307 47.6563 17.0613 48.531 17.424C49.4057 17.7653 50.1417 18.2027 50.739 18.736C51.3577 19.248 51.827 19.8773 52.147 20.624C52.4883 21.3707 52.659 22.2667 52.659 23.312C52.659 24.592 52.4137 25.68 51.923 26.576C51.4537 27.4507 50.8243 28.1653 50.035 28.72C49.2457 29.2533 48.339 29.648 47.315 29.904C46.291 30.1387 45.235 30.256 44.147 30.256C43.315 30.256 42.4617 30.192 41.587 30.064C40.7123 29.936 39.859 29.7547 39.027 29.52C38.195 29.264 37.3843 28.9653 36.595 28.624C35.827 28.2827 35.1123 27.888 34.451 27.44L36.755 22.864C36.8403 22.9707 37.1177 23.1733 37.587 23.472C38.0563 23.7707 38.6323 24.0693 39.315 24.368C40.019 24.6667 40.7977 24.9333 41.651 25.168C42.5043 25.4027 43.3683 25.52 44.243 25.52C46.099 25.52 47.027 24.9547 47.027 23.824C47.027 23.3973 46.8883 23.0453 46.611 22.768C46.3337 22.4907 45.9497 22.2453 45.459 22.032C44.9683 21.7973 44.3817 21.584 43.699 21.392C43.0377 21.2 42.3123 20.9867 41.523 20.752C40.4777 20.432 39.571 20.0907 38.803 19.728C38.035 19.344 37.395 18.9067 36.883 18.416C36.3923 17.9253 36.019 17.36 35.763 16.72C35.5283 16.08 35.411 15.3333 35.411 14.48C35.411 13.2853 35.635 12.2293 36.083 11.312C36.531 10.3947 37.139 9.62667 37.907 9.008C38.675 8.368 39.5603 7.888 40.563 7.568C41.587 7.248 42.6643 7.088 43.795 7.088C44.5843 7.088 45.363 7.16267 46.131 7.312C46.899 7.46133 47.635 7.65333 48.339 7.888C49.043 8.12267 49.6937 8.38933 50.291 8.688C50.9097 8.98667 51.475 9.28533 51.987 9.584L49.683 13.936ZM55.7385 30V7.28H65.4345C66.5225 7.28 67.5145 7.504 68.4105 7.952C69.3278 8.4 70.1065 8.98667 70.7465 9.712C71.4078 10.4373 71.9198 11.2587 72.2825 12.176C72.6665 13.0933 72.8585 14.0213 72.8585 14.96C72.8585 15.9627 72.6772 16.9227 72.3145 17.84C71.9732 18.7573 71.4825 19.5787 70.8425 20.304C70.2238 21.0293 69.4665 21.6053 68.5705 22.032C67.6745 22.4587 66.6825 22.672 65.5945 22.672H60.9865V30H55.7385ZM60.9865 18.096H65.2745C65.8932 18.096 66.4265 17.8293 66.8745 17.296C67.3225 16.7627 67.5465 15.984 67.5465 14.96C67.5465 14.4267 67.4718 13.968 67.3225 13.584C67.1945 13.2 67.0132 12.88 66.7785 12.624C66.5438 12.368 66.2772 12.1867 65.9785 12.08C65.6798 11.952 65.3812 11.888 65.0825 11.888H60.9865V18.096ZM75.676 30V7.28H85.916C86.9827 7.28 87.964 7.504 88.86 7.952C89.7773 8.4 90.5667 8.98667 91.228 9.712C91.8893 10.4373 92.4013 11.2587 92.764 12.176C93.148 13.0933 93.34 14.0213 93.34 14.96C93.34 15.664 93.2547 16.3467 93.084 17.008C92.9133 17.648 92.668 18.256 92.348 18.832C92.028 19.408 91.6333 19.9307 91.164 20.4C90.716 20.848 90.204 21.232 89.628 21.552L94.62 30H88.7L84.348 22.672H80.924V30H75.676ZM80.924 18.096H85.724C86.3427 18.096 86.876 17.808 87.324 17.232C87.772 16.6347 87.996 15.8773 87.996 14.96C87.996 14.0213 87.74 13.2747 87.228 12.72C86.716 12.1653 86.1613 11.888 85.564 11.888H80.924V18.096Z" fill="#F4F4F9"/>
<path d="M102.904 14.696V17H95.992V14.696H98.264V10.616C98.168 10.744 98.0187 10.8773 97.816 11.016C97.6133 11.144 97.384 11.2667 97.128 11.384C96.8827 11.4907 96.6267 11.5813 96.36 11.656C96.104 11.72 95.8747 11.752 95.672 11.752V9.384C95.8427 9.384 96.0613 9.32533 96.328 9.208C96.6053 9.09067 96.8773 8.952 97.144 8.792C97.4107 8.62133 97.6507 8.45067 97.864 8.28C98.0773 8.10933 98.2107 7.97067 98.264 7.864H100.872V14.696H102.904ZM103.761 11.848C103.761 11.2933 103.868 10.776 104.081 10.296C104.295 9.80533 104.588 9.384 104.961 9.032C105.335 8.66933 105.777 8.38667 106.289 8.184C106.801 7.97067 107.356 7.864 107.953 7.864C108.615 7.864 109.207 7.98667 109.729 8.232C110.252 8.47733 110.695 8.82933 111.057 9.288C111.42 9.74667 111.697 10.312 111.889 10.984C112.081 11.656 112.177 12.4133 112.177 13.256C112.177 14.248 112.071 15.1333 111.857 15.912C111.655 16.68 111.361 17.3253 110.977 17.848C110.593 18.3813 110.124 18.7867 109.569 19.064C109.015 19.3413 108.391 19.48 107.697 19.48C106.993 19.48 106.337 19.336 105.729 19.048C105.132 18.76 104.604 18.344 104.145 17.8L105.585 16.168C105.852 16.5093 106.172 16.776 106.545 16.968C106.919 17.16 107.313 17.256 107.729 17.256C108.359 17.256 108.855 17.032 109.217 16.584C109.591 16.136 109.788 15.5013 109.809 14.68C109.596 14.968 109.313 15.192 108.961 15.352C108.609 15.512 108.199 15.592 107.729 15.592C107.164 15.592 106.636 15.496 106.145 15.304C105.665 15.112 105.249 14.8507 104.897 14.52C104.545 14.1787 104.268 13.784 104.065 13.336C103.863 12.8773 103.761 12.3813 103.761 11.848ZM107.953 10.024C107.719 10.024 107.495 10.072 107.281 10.168C107.068 10.264 106.881 10.3973 106.721 10.568C106.561 10.728 106.433 10.92 106.337 11.144C106.241 11.368 106.193 11.6027 106.193 11.848C106.193 12.0933 106.236 12.3227 106.321 12.536C106.417 12.7387 106.545 12.92 106.705 13.08C106.865 13.2293 107.052 13.352 107.265 13.448C107.479 13.5333 107.708 13.576 107.953 13.576C108.188 13.576 108.412 13.5333 108.625 13.448C108.839 13.352 109.025 13.2293 109.185 13.08C109.345 12.92 109.473 12.7387 109.569 12.536C109.665 12.3227 109.713 12.0933 109.713 11.848C109.713 11.6027 109.665 11.368 109.569 11.144C109.473 10.92 109.345 10.728 109.185 10.568C109.025 10.3973 108.839 10.264 108.625 10.168C108.412 10.072 108.188 10.024 107.953 10.024Z" fill="#F4F4F9"/>
</svg>
