<svg class="social-icon" width="22" height="22" viewBox="0 0 22 22" fill="none" xmlns="http://www.w3.org/2000/svg">
<g clip-path="url(#clip0)">
<path class="social-image-fill" fill-rule="evenodd" clip-rule="evenodd" d="M10.9999 1.95606C12.4677 1.90088 13.9375 1.94163 15.3999 2.07806C16.1095 2.06927 16.8143 2.19376 17.4779 2.44506C18.3936 2.87163 19.1294 3.60745 19.5559 4.52306C19.8068 5.18641 19.9309 5.89093 19.9219 6.60006C19.9219 7.70006 20.0439 8.06706 20.0439 11.0001C20.0991 12.4678 20.0584 13.9376 19.9219 15.4001C19.9307 16.1096 19.8062 16.8145 19.5549 17.4781C19.1284 18.3937 18.3925 19.1295 17.4769 19.5561C16.8133 19.8074 16.1085 19.9319 15.3989 19.9231C14.2989 19.9231 13.9319 20.0451 10.9989 20.0451C9.53118 20.1002 8.06139 20.0595 6.59894 19.9231C5.88941 19.9319 5.18453 19.8074 4.52094 19.5561C3.60533 19.1295 2.8695 18.3937 2.44294 17.4781C2.19232 16.8143 2.06851 16.1095 2.07794 15.4001C2.07794 14.3001 1.95594 13.9331 1.95594 11.0001C1.90076 9.5323 1.94151 8.06251 2.07794 6.60006C2.06915 5.89053 2.19363 5.18566 2.44494 4.52206C2.65816 4.06895 2.94733 3.65565 3.29994 3.30006C3.58643 2.87248 4.0222 2.56722 4.52194 2.44406C5.1856 2.1931 5.89047 2.06895 6.59994 2.07806C8.06239 1.94163 9.53218 1.90088 10.9999 1.95606V1.95606ZM10.9999 6.29816e-05C9.49154 -0.0538127 7.98124 -0.0130661 6.47794 0.122063C5.55931 0.120006 4.64803 0.285725 3.78894 0.611063C3.04706 0.852823 2.37555 1.27234 1.83294 1.83306C1.27222 2.37568 0.852701 3.04718 0.610941 3.78906C0.22711 4.63086 0.0590488 5.55503 0.121941 6.47806C-0.0131882 7.98137 -0.0539348 9.49166 -5.90887e-05 11.0001C-0.0539348 12.5085 -0.0131882 14.0188 0.121941 15.5221C0.119884 16.4407 0.285602 17.352 0.610941 18.2111C0.852701 18.9529 1.27222 19.6244 1.83294 20.1671C2.37555 20.7278 3.04706 21.1473 3.78894 21.3891C4.64803 21.7144 5.55931 21.8801 6.47794 21.8781C7.98124 22.0132 9.49154 22.0539 10.9999 22.0001C12.5083 22.0539 14.0186 22.0132 15.5219 21.8781C16.4406 21.8801 17.3519 21.7144 18.2109 21.3891C18.9472 21.1354 19.616 20.7174 20.1666 20.1668C20.7173 19.6161 21.1353 18.9473 21.3889 18.2111C21.7143 17.352 21.88 16.4407 21.8779 15.5221C21.8769 14.3001 21.9999 13.9331 21.9999 11.0001C22.0538 9.49166 22.0131 7.98137 21.8779 6.47806C21.88 5.55944 21.7143 4.64815 21.3889 3.78906C21.1472 3.04718 20.7277 2.37568 20.1669 1.83306C19.6243 1.27234 18.9528 0.852823 18.2109 0.611063C17.3519 0.285725 16.4406 0.120006 15.5219 0.122063C14.0186 -0.0130661 12.5083 -0.0538127 10.9999 6.29816e-05V6.29816e-05ZM10.9999 5.37806C10.2583 5.3659 9.52177 5.503 8.83418 5.78123C8.14659 6.05945 7.52198 6.47311 6.99748 6.9976C6.47299 7.5221 6.05933 8.14671 5.7811 8.8343C5.50288 9.52189 5.36577 10.2584 5.37794 11.0001C5.37794 12.112 5.70767 13.1989 6.32542 14.1235C6.94317 15.048 7.82121 15.7686 8.84849 16.1941C9.87578 16.6196 11.0062 16.731 12.0967 16.514C13.1873 16.2971 14.189 15.7617 14.9753 14.9754C15.7615 14.1892 16.297 13.1874 16.5139 12.0969C16.7308 11.0063 16.6195 9.8759 16.194 8.84862C15.7685 7.82133 15.0479 6.94329 14.1234 6.32554C13.1988 5.70779 12.1119 5.37806 10.9999 5.37806V5.37806ZM10.9999 14.6671C10.5159 14.6762 10.035 14.5875 9.58595 14.4065C9.13694 14.2254 8.72906 13.9556 8.38672 13.6133C8.04438 13.2709 7.77461 12.8631 7.59354 12.4141C7.41248 11.965 7.32385 11.4841 7.33294 11.0001C7.32385 10.516 7.41248 10.0351 7.59354 9.58607C7.77461 9.13706 8.04438 8.72918 8.38672 8.38684C8.72906 8.0445 9.13694 7.77473 9.58595 7.59367C10.035 7.4126 10.5159 7.32397 10.9999 7.33306C11.4839 7.3241 11.9647 7.41284 12.4136 7.59396C12.8625 7.77509 13.2703 8.04488 13.6125 8.38721C13.9547 8.72954 14.2244 9.13737 14.4054 9.58631C14.5864 10.0353 14.675 10.5161 14.6659 11.0001C14.6749 11.484 14.5862 11.9647 14.4051 12.4135C14.2241 12.8623 13.9544 13.27 13.6121 13.6123C13.2699 13.9545 12.8622 14.2242 12.4134 14.4053C11.9646 14.5863 11.4838 14.675 10.9999 14.6661V14.6671ZM16.8659 3.78906C16.6001 3.78906 16.3403 3.86789 16.1193 4.01557C15.8982 4.16325 15.726 4.37315 15.6242 4.61874C15.5225 4.86432 15.4959 5.13455 15.5478 5.39526C15.5996 5.65597 15.7276 5.89545 15.9156 6.08341C16.1036 6.27138 16.343 6.39938 16.6037 6.45124C16.8644 6.5031 17.1347 6.47648 17.3803 6.37476C17.6259 6.27303 17.8358 6.10077 17.9834 5.87975C18.1311 5.65873 18.2099 5.39888 18.2099 5.13306C18.2068 4.77758 18.0642 4.43755 17.8128 4.18617C17.5615 3.9348 17.2214 3.7922 16.8659 3.78906" fill="#434343"/>
</g>
<defs>
<clipPath id="clip0">
<rect width="22" height="22" fill="white"/>
</clipPath>
</defs>
</svg>
