<svg width="88" height="88" viewBox="0 0 88 88" fill="none" xmlns="http://www.w3.org/2000/svg">
<path d="M43.9997 51.3333C50.0863 51.3333 54.9997 46.4199 54.9997 40.3333V18.3333C54.9997 12.2466 50.0863 7.33325 43.9997 7.33325C37.913 7.33325 32.9997 12.2466 32.9997 18.3333V40.3333C32.9997 46.4199 37.913 51.3333 43.9997 51.3333ZM40.333 18.3333C40.333 16.3166 41.983 14.6666 43.9997 14.6666C46.0163 14.6666 47.6663 16.3166 47.6663 18.3333V40.3333C47.6663 42.3499 46.0163 43.9999 43.9997 43.9999C41.983 43.9999 40.333 42.3499 40.333 40.3333V18.3333ZM62.333 40.3333C62.333 50.4533 54.1197 58.6666 43.9997 58.6666C33.8797 58.6666 25.6663 50.4533 25.6663 40.3333H18.333C18.333 53.2766 27.903 63.9099 40.333 65.7066V76.9999H47.6663V65.7066C60.0964 63.9099 69.6664 53.2766 69.6664 40.3333H62.333Z" fill="#3379FF"/>
</svg>
