<svg class="svg-image" width="22" height="22" viewBox="0 0 22 22" fill="none" xmlns="http://www.w3.org/2000/svg">
<path class="svg-image-fill" fill-rule="evenodd" clip-rule="evenodd" d="M6.967 20.5932C8.65649 20.6084 10.3321 20.2868 11.8959 19.6473C13.4598 19.0078 14.8805 18.0631 16.0752 16.8684C17.2699 15.6737 18.2146 14.2529 18.8541 12.6891C19.4937 11.1253 19.8152 9.44967 19.8 7.76018V7.14918C20.6539 6.49909 21.3969 5.71493 22 4.82718C21.1804 5.18351 20.3172 5.42997 19.433 5.56018C20.3422 4.98963 21.0315 4.12826 21.389 3.11618C20.5059 3.6079 19.5603 3.97792 18.578 4.21618C18.1644 3.75022 17.6557 3.37822 17.0864 3.12519C16.517 2.87215 15.9 2.74394 15.277 2.74918C14.0833 2.76724 12.9436 3.24946 12.0994 4.09362C11.2553 4.93777 10.7731 6.0775 10.755 7.27118C10.7271 7.60212 10.7686 7.93524 10.877 8.24918C9.07841 8.16233 7.31916 7.69208 5.71712 6.86994C4.11509 6.04779 2.70727 4.89274 1.588 3.48218C1.18592 4.18989 0.975322 4.99022 0.977001 5.80418C0.993259 6.54294 1.1779 7.26825 1.51686 7.92486C1.85582 8.58147 2.34017 9.15206 2.933 9.59318C2.19824 9.57849 1.48078 9.36753 0.855 8.98218C0.853776 10.029 1.22026 11.0431 1.89048 11.8473C2.5607 12.6514 3.49207 13.1947 4.522 13.3822C4.12408 13.4894 3.71126 13.5306 3.3 13.5042C3.00927 13.5239 2.71764 13.4824 2.444 13.3822C2.74284 14.2881 3.31418 15.0795 4.07992 15.6484C4.84566 16.2172 5.76841 16.5357 6.722 16.5602C5.11538 17.8149 3.13849 18.5024 1.1 18.5152C0.729121 18.5352 0.357487 18.4939 0 18.3932C2.02264 19.862 4.46765 20.634 6.967 20.5932Z" fill="#434343"/>
</svg>
